<?xml version="1.0" standalone="no"?>
<!DOCTYPE svg PUBLIC "-//W3C//DTD SVG 20010904//EN"
 "http://www.w3.org/TR/2001/REC-SVG-20010904/DTD/svg10.dtd">
<svg version="1.0" xmlns="http://www.w3.org/2000/svg"
 width="500.000000pt" height="500.000000pt" viewBox="0 0 500.000000 500.000000"
 preserveAspectRatio="xMidYMid meet">

<g transform="translate(0.000000,500.000000) scale(0.100000,-0.100000)"
fill="#000000" stroke="none">
<path d="M2558 4671 c-36 -38 -78 -95 -94 -127 -28 -57 -36 -122 -43 -336 -2
-66 -40 1 -59 105 -6 32 -22 82 -35 110 -28 59 -83 137 -97 137 -13 0 -2 -93
21 -174 17 -56 29 -77 68 -115 25 -25 57 -63 70 -84 23 -37 23 -44 17 -150 -4
-61 -10 -115 -13 -120 -10 -16 -51 63 -58 111 -11 74 -43 147 -85 194 -36 41
-123 96 -180 113 -23 7 -24 7 -9 -16 9 -13 31 -69 49 -123 26 -80 41 -107 74
-140 22 -23 57 -47 76 -55 19 -7 44 -16 55 -21 11 -4 32 -29 47 -56 26 -49 26
-49 10 -99 -17 -49 -38 -68 -87 -77 -16 -2 -20 5 -26 43 -8 54 -28 96 -61 126
-29 27 -182 142 -185 139 -1 -1 4 -31 12 -68 17 -84 51 -151 110 -216 26 -29
46 -54 44 -56 -2 -1 -145 -45 -317 -96 -172 -52 -316 -96 -321 -99 -5 -4 -29
-116 -54 -251 -38 -207 -43 -250 -33 -277 6 -17 92 -123 191 -235 301 -339
690 -774 849 -947 230 -249 228 -246 116 -170 -114 78 -156 97 -173 80 -9 -9
-8 -18 3 -39 18 -31 70 -63 153 -94 58 -21 59 -22 34 -34 -13 -8 -64 -25 -112
-39 l-87 -25 -84 89 c-82 87 -134 124 -161 114 -42 -16 10 -76 141 -158 l78
-50 -58 -12 c-33 -6 -88 -15 -124 -18 l-65 -7 -65 82 c-108 137 -130 160 -156
160 -53 0 -8 -70 107 -166 69 -57 79 -69 63 -75 -24 -9 -154 -10 -213 -1 -41
7 -45 10 -83 77 -49 86 -75 115 -104 115 -56 0 -41 -52 37 -128 l60 -59 -63
10 c-35 5 -89 20 -122 33 -77 31 -119 38 -145 25 -64 -35 18 -71 162 -71 56 0
120 -4 142 -9 l40 -8 -50 -22 c-84 -38 -125 -91 -70 -91 36 0 74 22 120 69
l39 41 136 0 135 -1 -45 -41 c-25 -22 -67 -55 -95 -73 -60 -39 -89 -70 -80
-84 9 -16 61 -13 94 4 37 18 107 98 133 150 11 22 22 42 24 44 2 2 48 10 101
17 54 7 113 16 132 20 l35 7 -77 -89 c-89 -103 -115 -148 -97 -170 19 -22 48
-17 77 14 31 32 100 172 109 219 5 29 12 34 48 43 22 6 76 23 119 39 42 16 77
26 77 22 0 -3 -10 -17 -21 -31 -11 -14 -43 -58 -70 -99 -51 -76 -63 -126 -33
-138 35 -13 126 120 139 206 15 93 4 97 144 -47 l127 -132 47 0 c92 0 388 109
792 292 316 143 608 293 646 331 18 17 54 77 80 132 46 98 142 362 137 375 -2
3 -354 332 -783 730 -429 397 -799 741 -821 762 l-41 39 -318 -96 c-174 -53
-319 -94 -321 -92 -2 2 2 32 9 67 16 77 29 87 126 99 85 11 148 45 238 128
l58 54 -70 -6 c-38 -3 -94 -13 -123 -22 -57 -17 -133 -77 -157 -124 -9 -16
-24 -33 -35 -39 -18 -10 -19 -8 -13 57 3 38 12 79 19 93 24 48 88 97 162 125
79 29 135 77 191 161 51 77 38 92 -45 52 -53 -24 -205 -164 -225 -207 -16 -32
-88 -115 -95 -108 -2 2 0 48 6 101 10 96 11 99 55 149 58 66 109 169 135 272
32 131 29 133 -62 36z m1308 -2501 c373 126 679 228 681 226 2 -1 -290 -117
-649 -257 -358 -140 -659 -261 -668 -269 -10 -8 -57 -101 -106 -207 -48 -106
-89 -191 -90 -190 -1 1 20 92 47 202 26 110 48 208 49 217 0 9 -282 301 -627
650 -344 348 -676 684 -737 747 -61 63 234 -215 656 -617 l767 -732 677 230z"/>
<path d="M855 3044 c-280 -52 -513 -98 -518 -103 -10 -10 4 -236 28 -486 l15
-150 45 -42 c54 -50 359 -273 530 -388 135 -91 197 -115 305 -122 68 -4 117 5
544 101 258 58 471 108 474 110 8 9 -491 556 -507 556 -9 0 -140 -27 -291 -59
-151 -33 -285 -61 -296 -63 -15 -2 -143 77 -400 246 -209 137 -386 255 -394
263 -8 7 166 -87 387 -210 l401 -223 283 38 c156 22 285 41 287 43 2 2 -71 88
-163 192 -92 103 -174 204 -182 223 -15 33 -13 113 3 154 5 12 0 16 -17 15
-13 0 -253 -43 -534 -95z"/>
<path d="M1615 739 c-36 -10 -79 -48 -102 -92 -27 -48 -26 -247 1 -300 58
-117 230 -127 302 -17 24 37 28 52 29 119 l0 76 -93 3 -93 3 3 -33 c3 -32 4
-33 56 -36 48 -3 52 -5 52 -28 0 -33 -25 -81 -49 -94 -34 -18 -78 -11 -110 16
l-31 26 0 115 c0 113 0 115 29 144 36 35 81 38 130 8 31 -19 34 -19 52 -3 37
33 15 67 -60 92 -39 14 -73 14 -116 1z"/>
<path d="M2935 731 c-46 -21 -79 -54 -94 -94 -17 -44 -14 -252 3 -286 21 -40
79 -88 116 -96 49 -11 117 3 150 31 35 30 37 44 11 68 -18 16 -21 16 -52 -3
-49 -30 -94 -27 -130 8 -29 29 -29 31 -29 141 0 110 0 112 29 141 36 36 86 39
126 7 29 -22 48 -19 69 14 13 22 -7 46 -59 69 -51 23 -90 23 -140 0z"/>
<path d="M337 733 c-4 -3 -7 -111 -7 -240 l0 -233 40 0 40 0 0 100 0 99 73 3
72 3 3 32 3 32 -73 3 -73 3 -3 63 -3 62 96 0 95 0 0 40 0 40 -128 0 c-71 0
-132 -3 -135 -7z"/>
<path d="M690 720 c-7 -13 -10 -95 -8 -238 l3 -217 40 0 40 0 3 93 c2 71 6 92
17 92 8 0 40 -43 72 -95 l58 -95 43 0 c23 0 42 4 42 9 0 4 -26 48 -57 96 -35
53 -53 90 -46 92 27 9 66 49 79 79 19 46 18 78 -7 125 -29 57 -80 78 -186 79
-72 0 -84 -2 -93 -20z m202 -91 c39 -53 -8 -109 -92 -109 l-30 0 0 71 0 70 51
-3 c42 -2 56 -8 71 -29z"/>
<path d="M1205 730 c-4 -6 -40 -112 -80 -236 -77 -238 -77 -239 -19 -232 23 2
30 11 44 53 l17 50 79 3 80 3 18 -56 c17 -54 17 -55 57 -55 25 0 39 5 39 13 0
6 -34 113 -74 237 l-74 225 -40 3 c-22 2 -43 -2 -47 -8z m70 -191 c14 -44 25
-82 25 -85 0 -2 -24 -4 -54 -4 l-53 0 25 85 c14 47 27 85 28 85 2 0 15 -36 29
-81z"/>
<path d="M1976 508 c-41 -128 -72 -236 -70 -240 3 -4 20 -8 39 -8 32 0 35 3
51 55 l18 56 80 -3 79 -3 17 -50 c15 -45 20 -50 50 -53 18 -2 36 0 41 5 4 4
-26 113 -68 241 l-76 232 -43 0 -43 0 -75 -232z m121 -56 c-27 -2 -51 -2 -53
0 -1 2 9 42 23 88 l27 85 26 -85 27 -85 -50 -3z"/>
<path d="M2370 501 l0 -241 35 0 35 0 2 165 3 165 98 -165 98 -166 42 3 42 3
0 235 0 235 -35 0 -35 0 -3 -165 -3 -165 -97 165 -98 165 -42 3 -42 3 0 -240z"/>
<path d="M3220 715 c0 -14 0 -28 0 -32 -1 -5 14 -10 32 -13 l33 -5 0 -165 0
-165 -35 -5 c-30 -4 -34 -8 -34 -35 l0 -30 112 -3 112 -3 0 36 c0 33 -2 35
-35 35 l-35 0 0 170 0 170 36 0 c34 0 35 1 32 33 l-3 32 -107 3 -108 3 0 -26z"/>
<path d="M3657 733 c-8 -14 -147 -450 -147 -462 0 -8 13 -11 37 -9 36 3 39 6
57 55 l19 53 77 0 77 0 19 -52 c18 -50 21 -53 57 -56 30 -3 37 0 37 15 0 10
-33 117 -73 238 l-73 220 -41 3 c-23 2 -43 -1 -46 -5z m71 -197 c12 -41 22
-77 22 -80 0 -3 -22 -6 -50 -6 -27 0 -50 3 -50 6 0 18 44 154 50 154 4 0 17
-33 28 -74z"/>
<path d="M3983 729 c-10 -10 -13 -72 -13 -241 l0 -228 40 0 40 0 0 95 c0 84 2
95 18 95 11 0 38 -33 76 -95 58 -93 60 -95 97 -95 21 0 40 3 42 8 3 4 -21 47
-53 97 l-59 89 30 14 c65 32 94 143 52 200 -41 55 -68 67 -166 70 -65 3 -96 0
-104 -9z m189 -86 c25 -22 23 -75 -2 -98 -14 -13 -37 -19 -68 -19 l-47 -1 -3
68 -3 67 52 0 c35 0 59 -6 71 -17z"/>
<path d="M4334 726 c-3 -8 -4 -25 -2 -38 3 -21 9 -23 66 -26 l62 -3 0 -199 0
-200 40 0 40 0 0 200 0 200 65 0 65 0 0 40 0 40 -165 0 c-134 0 -167 -3 -171
-14z"/>
</g>
</svg>
